<?xml version="1.0" encoding="UTF-8"?>
<svg xmlns="http://www.w3.org/2000/svg" xmlns:xlink="http://www.w3.org/1999/xlink" viewBox="936582 18990004 1718805 2318441">
  <rect x="2275679" y="20206968" height="32422" width="90000" stroke="#000000" fill="#964342" />
  <rect x="2208157" y="21069957" height="32422" width="62000" stroke="#000000" fill="#8d9a79" />
  <rect x="2569387" y="20500581" height="32422" width="86000" stroke="#000000" fill="#96654e" />
  <rect x="1036078" y="19790323" height="32422" width="44000" stroke="#000000" fill="#bf6f3f" />
  <rect x="2562618" y="19630772" height="32422" width="84000" stroke="#000000" fill="#68467b" />
  <rect x="1853696" y="20206968" height="32422" width="104000" stroke="#000000" fill="#416ab2" />
  <rect x="2417456" y="20109971" height="32422" width="106000" stroke="#000000" fill="#ae495b" />
  <rect x="2387084" y="19826745" height="32422" width="54000" stroke="#000000" fill="#6bbbaf" />
  <rect x="2078760" y="19385493" height="32422" width="84000" stroke="#000000" fill="#4351bc" />
  <rect x="1725421" y="20571706" height="32422" width="76000" stroke="#000000" fill="#66735c" />
  <rect x="1880701" y="19778687" height="32422" width="52000" stroke="#000000" fill="#4fc13f" />
  <rect x="1486759" y="20095080" height="32422" width="112000" stroke="#000000" fill="#b15dc2" />
  <rect x="1656100" y="20710001" height="32422" width="114000" stroke="#000000" fill="#994067" />
  <rect x="1559988" y="20725728" height="32422" width="82000" stroke="#000000" fill="#8e6b9a" />
  <rect x="1438447" y="20560576" height="32422" width="106000" stroke="#000000" fill="#9f6c91" />
  <rect x="1960604" y="19281220" height="32422" width="58000" stroke="#000000" fill="#61505c" />
  <rect x="1246043" y="19991905" height="32422" width="50000" stroke="#000000" fill="#c1573b" />
  <rect x="1508687" y="20474092" height="32422" width="104000" stroke="#000000" fill="#64b738" />
  <rect x="2055228" y="20805058" height="32422" width="70000" stroke="#000000" fill="#8056c1" />
  <rect x="2511992" y="20261029" height="32422" width="102000" stroke="#000000" fill="#84b5ad" />
  <rect x="936582" y="19595366" height="32422" width="56000" stroke="#000000" fill="#835436" />
  <rect x="1996489" y="20510197" height="32422" width="80000" stroke="#000000" fill="#46486e" />
  <rect x="2349943" y="19056978" height="32422" width="118000" stroke="#000000" fill="#695c87" />
  <rect x="1215653" y="20245895" height="32422" width="114000" stroke="#000000" fill="#746c7b" />
  <rect x="1459178" y="19887874" height="32422" width="84000" stroke="#000000" fill="#be568e" />
  <rect x="1641021" y="19694121" height="32422" width="68000" stroke="#000000" fill="#66ad48" />
  <rect x="2083258" y="18990004" height="32422" width="56000" stroke="#000000" fill="#564441" />
  <rect x="2285797" y="20094034" height="32422" width="108000" stroke="#000000" fill="#4e7495" />
  <rect x="1913444" y="19897330" height="32422" width="108000" stroke="#000000" fill="#5b7373" />
  <rect x="1326720" y="19681221" height="32422" width="60000" stroke="#000000" fill="#636c89" />
  <rect x="1791798" y="20344180" height="32422" width="168000" stroke="#000000" fill="#87c490" />
  <rect x="2066371" y="19243972" height="32422" width="120000" stroke="#000000" fill="#5b587b" />
  <rect x="2218284" y="21193610" height="32422" width="102000" stroke="#000000" fill="#858f6b" />
  <rect x="1087379" y="20094034" height="32422" width="68000" stroke="#000000" fill="#aea657" />
  <rect x="2365679" y="20217785" height="32422" width="58000" stroke="#000000" fill="#3ab298" />
  <rect x="1357431" y="19056978" height="32422" width="62000" stroke="#000000" fill="#565fa2" />
  <rect x="1949348" y="21210474" height="32422" width="118000" stroke="#000000" fill="#705f82" />
  <rect x="2342535" y="19939471" height="32422" width="80000" stroke="#000000" fill="#9f5e59" />
  <rect x="2433209" y="21276024" height="32422" width="68000" stroke="#000000" fill="#5cc13b" />
  <rect x="1499226" y="19667689" height="32422" width="90000" stroke="#000000" fill="#5098ac" />
  <rect x="2135001" y="19289907" height="32422" width="140000" stroke="#000000" fill="#6bb565" />
  <rect x="1848288" y="19956601" height="32422" width="74000" stroke="#000000" fill="#bebea5" />
</svg>
