<?xml version="1.0" encoding="UTF-8"?>
<svg xmlns="http://www.w3.org/2000/svg" xmlns:xlink="http://www.w3.org/1999/xlink" viewBox="936582 18990004 1718805 2318441">
  <rect x="2275679" y="20206968" height="32422" width="90000" stroke="#000000" fill="#4c5842" />
  <text x="2275679" y="20206968" font-family="verdana" font-size="20px" font-weight="bold">Test</text>
  <rect x="2208157" y="21069957" height="32422" width="62000" stroke="#000000" fill="#66818c" />
  <text x="2208157" y="21069957" font-family="verdana" font-size="20px" font-weight="bold">Test</text>
  <rect x="2569387" y="20500581" height="32422" width="86000" stroke="#000000" fill="#479a4f" />
  <text x="2569387" y="20500581" font-family="verdana" font-size="20px" font-weight="bold">Test</text>
  <rect x="1036078" y="19790323" height="32422" width="44000" stroke="#000000" fill="#406659" />
  <text x="1036078" y="19790323" font-family="verdana" font-size="20px" font-weight="bold">Test</text>
  <rect x="2562618" y="19630772" height="32422" width="84000" stroke="#000000" fill="#a89abf" />
  <text x="2562618" y="19630772" font-family="verdana" font-size="20px" font-weight="bold">Test</text>
  <rect x="1853696" y="20206968" height="32422" width="104000" stroke="#000000" fill="#54c4a1" />
  <text x="1853696" y="20206968" font-family="verdana" font-size="20px" font-weight="bold">Test</text>
  <rect x="2417456" y="20109971" height="32422" width="106000" stroke="#000000" fill="#569786" />
  <text x="2417456" y="20109971" font-family="verdana" font-size="20px" font-weight="bold">Test</text>
  <rect x="2387084" y="19826745" height="32422" width="54000" stroke="#000000" fill="#533f56" />
  <text x="2387084" y="19826745" font-family="verdana" font-size="20px" font-weight="bold">Test</text>
  <rect x="2078760" y="19385493" height="32422" width="84000" stroke="#000000" fill="#8e96b4" />
  <text x="2078760" y="19385493" font-family="verdana" font-size="20px" font-weight="bold">Test</text>
  <rect x="1725421" y="20571706" height="32422" width="76000" stroke="#000000" fill="#926446" />
  <text x="1725421" y="20571706" font-family="verdana" font-size="20px" font-weight="bold">Test</text>
  <rect x="1880701" y="19778687" height="32422" width="52000" stroke="#000000" fill="#668b37" />
  <text x="1880701" y="19778687" font-family="verdana" font-size="20px" font-weight="bold">Test</text>
  <rect x="1486759" y="20095080" height="32422" width="112000" stroke="#000000" fill="#5dae90" />
  <text x="1486759" y="20095080" font-family="verdana" font-size="20px" font-weight="bold">Test</text>
  <rect x="1656100" y="20710001" height="32422" width="114000" stroke="#000000" fill="#a2c17e" />
  <text x="1656100" y="20710001" font-family="verdana" font-size="20px" font-weight="bold">Test</text>
  <rect x="1559988" y="20725728" height="32422" width="82000" stroke="#000000" fill="#637798" />
  <text x="1559988" y="20725728" font-family="verdana" font-size="20px" font-weight="bold">Test</text>
  <rect x="1438447" y="20560576" height="32422" width="106000" stroke="#000000" fill="#69985c" />
  <text x="1438447" y="20560576" font-family="verdana" font-size="20px" font-weight="bold">Test</text>
  <rect x="1960604" y="19281220" height="32422" width="58000" stroke="#000000" fill="#868b6b" />
  <text x="1960604" y="19281220" font-family="verdana" font-size="20px" font-weight="bold">Test</text>
  <rect x="1246043" y="19991905" height="32422" width="50000" stroke="#000000" fill="#3f3736" />
  <text x="1246043" y="19991905" font-family="verdana" font-size="20px" font-weight="bold">Test</text>
  <rect x="1508687" y="20474092" height="32422" width="104000" stroke="#000000" fill="#6096a8" />
  <text x="1508687" y="20474092" font-family="verdana" font-size="20px" font-weight="bold">Test</text>
  <rect x="2055228" y="20805058" height="32422" width="70000" stroke="#000000" fill="#8bb697" />
  <text x="2055228" y="20805058" font-family="verdana" font-size="20px" font-weight="bold">Test</text>
  <rect x="2511992" y="20261029" height="32422" width="102000" stroke="#000000" fill="#3f7155" />
  <text x="2511992" y="20261029" font-family="verdana" font-size="20px" font-weight="bold">Test</text>
  <rect x="936582" y="19595366" height="32422" width="56000" stroke="#000000" fill="#818bb5" />
  <text x="936582" y="19595366" font-family="verdana" font-size="20px" font-weight="bold">Test</text>
  <rect x="1996489" y="20510197" height="32422" width="80000" stroke="#000000" fill="#a7b666" />
  <text x="1996489" y="20510197" font-family="verdana" font-size="20px" font-weight="bold">Test</text>
  <rect x="2349943" y="19056978" height="32422" width="118000" stroke="#000000" fill="#9f63a5" />
  <text x="2349943" y="19056978" font-family="verdana" font-size="20px" font-weight="bold">Test</text>
  <rect x="1215653" y="20245895" height="32422" width="114000" stroke="#000000" fill="#969c54" />
  <text x="1215653" y="20245895" font-family="verdana" font-size="20px" font-weight="bold">Test</text>
  <rect x="1459178" y="19887874" height="32422" width="84000" stroke="#000000" fill="#68c39d" />
  <text x="1459178" y="19887874" font-family="verdana" font-size="20px" font-weight="bold">Test</text>
  <rect x="1641021" y="19694121" height="32422" width="68000" stroke="#000000" fill="#a8a794" />
  <text x="1641021" y="19694121" font-family="verdana" font-size="20px" font-weight="bold">Test</text>
  <rect x="2083258" y="18990004" height="32422" width="56000" stroke="#000000" fill="#5bb457" />
  <text x="2083258" y="18990004" font-family="verdana" font-size="20px" font-weight="bold">Test</text>
  <rect x="2285797" y="20094034" height="32422" width="108000" stroke="#000000" fill="#62a655" />
  <text x="2285797" y="20094034" font-family="verdana" font-size="20px" font-weight="bold">Test</text>
  <rect x="1913444" y="19897330" height="32422" width="108000" stroke="#000000" fill="#c29e39" />
  <text x="1913444" y="19897330" font-family="verdana" font-size="20px" font-weight="bold">Test</text>
  <rect x="1326720" y="19681221" height="32422" width="60000" stroke="#000000" fill="#51a4be" />
  <text x="1326720" y="19681221" font-family="verdana" font-size="20px" font-weight="bold">Test</text>
  <rect x="1791798" y="20344180" height="32422" width="168000" stroke="#000000" fill="#3bac4f" />
  <text x="1791798" y="20344180" font-family="verdana" font-size="20px" font-weight="bold">Test</text>
  <rect x="2066371" y="19243972" height="32422" width="120000" stroke="#000000" fill="#626447" />
  <text x="2066371" y="19243972" font-family="verdana" font-size="20px" font-weight="bold">Test</text>
  <rect x="2218284" y="21193610" height="32422" width="102000" stroke="#000000" fill="#3c75b9" />
  <text x="2218284" y="21193610" font-family="verdana" font-size="20px" font-weight="bold">Test</text>
  <rect x="1087379" y="20094034" height="32422" width="68000" stroke="#000000" fill="#42bf7f" />
  <text x="1087379" y="20094034" font-family="verdana" font-size="20px" font-weight="bold">Test</text>
  <rect x="2365679" y="20217785" height="32422" width="58000" stroke="#000000" fill="#a772b5" />
  <text x="2365679" y="20217785" font-family="verdana" font-size="20px" font-weight="bold">Test</text>
  <rect x="1357431" y="19056978" height="32422" width="62000" stroke="#000000" fill="#57894e" />
  <text x="1357431" y="19056978" font-family="verdana" font-size="20px" font-weight="bold">Test</text>
  <rect x="1949348" y="21210474" height="32422" width="118000" stroke="#000000" fill="#9d3655" />
  <text x="1949348" y="21210474" font-family="verdana" font-size="20px" font-weight="bold">Test</text>
  <rect x="2342535" y="19939471" height="32422" width="80000" stroke="#000000" fill="#c3a077" />
  <text x="2342535" y="19939471" font-family="verdana" font-size="20px" font-weight="bold">Test</text>
  <rect x="2433209" y="21276024" height="32422" width="68000" stroke="#000000" fill="#49b8be" />
  <text x="2433209" y="21276024" font-family="verdana" font-size="20px" font-weight="bold">Test</text>
  <rect x="1499226" y="19667689" height="32422" width="90000" stroke="#000000" fill="#ba9d3c" />
  <text x="1499226" y="19667689" font-family="verdana" font-size="20px" font-weight="bold">Test</text>
  <rect x="2135001" y="19289907" height="32422" width="140000" stroke="#000000" fill="#b6b845" />
  <text x="2135001" y="19289907" font-family="verdana" font-size="20px" font-weight="bold">Test</text>
  <rect x="1848288" y="19956601" height="32422" width="74000" stroke="#000000" fill="#8ab280" />
  <text x="1848288" y="19956601" font-family="verdana" font-size="20px" font-weight="bold">Test</text>
</svg>
