<?xml version="1.0" encoding="UTF-8"?>
<svg xmlns="http://www.w3.org/2000/svg" xmlns:xlink="http://www.w3.org/1999/xlink" viewBox="308839 6261982 624420 786240">
  <rect x="750408" y="6663278" height="32422" width="90000" stroke="#000000" fill="#5d5373" />
  <rect x="728143" y="6947850" height="32422" width="62000" stroke="#000000" fill="#9b5b6d" />
  <rect x="847259" y="6760097" height="32422" width="86000" stroke="#000000" fill="#8e7370" />
  <rect x="341648" y="6525888" height="32422" width="44000" stroke="#000000" fill="#6775ba" />
  <rect x="845027" y="6473276" height="32422" width="84000" stroke="#000000" fill="#519a64" />
  <rect x="611259" y="6663278" height="32422" width="104000" stroke="#000000" fill="#748342" />
  <rect x="797160" y="6631293" height="32422" width="106000" stroke="#000000" fill="#6c5755" />
  <rect x="787144" y="6537899" height="32422" width="54000" stroke="#000000" fill="#91b87a" />
  <rect x="685474" y="6392395" height="32422" width="84000" stroke="#000000" fill="#6c8438" />
  <rect x="568960" y="6783550" height="32422" width="76000" stroke="#000000" fill="#8cbc5e" />
  <rect x="620164" y="6522051" height="32422" width="52000" stroke="#000000" fill="#7cb0a0" />
  <rect x="490261" y="6626382" height="32422" width="112000" stroke="#000000" fill="#a04f46" />
  <rect x="546101" y="6829153" height="32422" width="114000" stroke="#000000" fill="#473aad" />
  <rect x="514408" y="6834339" height="32422" width="82000" stroke="#000000" fill="#758b5b" />
  <rect x="474330" y="6779880" height="32422" width="106000" stroke="#000000" fill="#52657f" />
  <rect x="646512" y="6358011" height="32422" width="58000" stroke="#000000" fill="#538039" />
  <rect x="410885" y="6592360" height="32422" width="50000" stroke="#000000" fill="#74ba8c" />
  <rect x="497492" y="6751362" height="32422" width="104000" stroke="#000000" fill="#a9784a" />
  <rect x="677715" y="6860499" height="32422" width="70000" stroke="#000000" fill="#765d8c" />
  <rect x="828333" y="6681104" height="32422" width="102000" stroke="#000000" fill="#6794a6" />
  <rect x="308839" y="6461601" height="32422" width="56000" stroke="#000000" fill="#609f8a" />
  <rect x="658345" y="6763268" height="32422" width="80000" stroke="#000000" fill="#77bd9d" />
  <rect x="774897" y="6284067" height="32422" width="118000" stroke="#000000" fill="#a7405e" />
  <rect x="400863" y="6676114" height="32422" width="114000" stroke="#000000" fill="#576f4b" />
  <rect x="481166" y="6558056" height="32422" width="84000" stroke="#000000" fill="#6c6750" />
  <rect x="541129" y="6494165" height="32422" width="68000" stroke="#000000" fill="#af5576" />
  <rect x="686957" y="6261982" height="32422" width="56000" stroke="#000000" fill="#b47298" />
  <rect x="753745" y="6626038" height="32422" width="108000" stroke="#000000" fill="#54433c" />
  <rect x="630961" y="6561174" height="32422" width="108000" stroke="#000000" fill="#806551" />
  <rect x="437488" y="6489912" height="32422" width="60000" stroke="#000000" fill="#a68b55" />
  <rect x="590848" y="6708523" height="32422" width="168000" stroke="#000000" fill="#ab91b5" />
  <rect x="681389" y="6345728" height="32422" width="120000" stroke="#000000" fill="#ac9983" />
  <rect x="731482" y="6988624" height="32422" width="102000" stroke="#000000" fill="#668d91" />
  <rect x="358565" y="6626038" height="32422" width="68000" stroke="#000000" fill="#ad9478" />
  <rect x="780086" y="6666844" height="32422" width="58000" stroke="#000000" fill="#585876" />
  <rect x="447615" y="6284067" height="32422" width="62000" stroke="#000000" fill="#9fa58d" />
  <rect x="642800" y="6994185" height="32422" width="118000" stroke="#000000" fill="#67a6a4" />
  <rect x="772454" y="6575070" height="32422" width="80000" stroke="#000000" fill="#b3c384" />
  <rect x="802354" y="7015800" height="32422" width="68000" stroke="#000000" fill="#546351" />
  <rect x="494372" y="6485449" height="32422" width="90000" stroke="#000000" fill="#568ea8" />
  <rect x="704020" y="6360875" height="32422" width="140000" stroke="#000000" fill="#ad4262" />
  <rect x="609476" y="6580719" height="32422" width="74000" stroke="#000000" fill="#83c138" />
</svg>
