<?xml version="1.0" encoding="UTF-8"?>
<svg xmlns="http://www.w3.org/2000/svg" xmlns:xlink="http://www.w3.org/1999/xlink" viewBox="9223372036854775807 9223372036854775807 9223372036854775807 9223372036854775807">
  <rect x="9223372036854775807" y="9223372036854775807" height="32422" width="50000" stroke="#000000" fill="#af9157" />
  <rect x="9223372036854775807" y="9223372036854775807" height="32422" width="98000" stroke="#000000" fill="#8db8b6" />
  <rect x="9223372036854775807" y="9223372036854775807" height="32422" width="76000" stroke="#000000" fill="#917e46" />
  <rect x="9223372036854775807" y="9223372036854775807" height="32422" width="66000" stroke="#000000" fill="#6a7ba4" />
  <rect x="9223372036854775807" y="9223372036854775807" height="32422" width="80000" stroke="#000000" fill="#b79995" />
  <rect x="9223372036854775807" y="9223372036854775807" height="32422" width="60000" stroke="#000000" fill="#bf6eb7" />
  <rect x="9223372036854775807" y="9223372036854775807" height="32422" width="92000" stroke="#000000" fill="#7a5b54" />
  <rect x="9223372036854775807" y="9223372036854775807" height="32422" width="80000" stroke="#000000" fill="#5a89ae" />
  <rect x="9223372036854775807" y="9223372036854775807" height="32422" width="48000" stroke="#000000" fill="#9b846e" />
  <rect x="9223372036854775807" y="9223372036854775807" height="32422" width="104000" stroke="#000000" fill="#bba05d" />
  <rect x="9223372036854775807" y="9223372036854775807" height="32422" width="60000" stroke="#000000" fill="#3d439d" />
  <rect x="9223372036854775807" y="9223372036854775807" height="32422" width="74000" stroke="#000000" fill="#bf5abb" />
  <rect x="9223372036854775807" y="9223372036854775807" height="32422" width="104000" stroke="#000000" fill="#385b87" />
  <rect x="9223372036854775807" y="9223372036854775807" height="32422" width="128000" stroke="#000000" fill="#687b69" />
  <rect x="9223372036854775807" y="9223372036854775807" height="32422" width="100000" stroke="#000000" fill="#6b4750" />
  <rect x="9223372036854775807" y="9223372036854775807" height="32422" width="40000" stroke="#000000" fill="#5cacb9" />
  <rect x="9223372036854775807" y="9223372036854775807" height="32422" width="94000" stroke="#000000" fill="#394439" />
  <rect x="9223372036854775807" y="9223372036854775807" height="32422" width="70000" stroke="#000000" fill="#8c8a6d" />
  <rect x="9223372036854775807" y="9223372036854775807" height="32422" width="66000" stroke="#000000" fill="#668544" />
  <rect x="9223372036854775807" y="9223372036854775807" height="32422" width="96000" stroke="#000000" fill="#75a4b8" />
  <rect x="9223372036854775807" y="9223372036854775807" height="32422" width="66000" stroke="#000000" fill="#ae5b9c" />
  <rect x="9223372036854775807" y="9223372036854775807" height="32422" width="72000" stroke="#000000" fill="#6a8193" />
  <rect x="9223372036854775807" y="9223372036854775807" height="32422" width="54000" stroke="#000000" fill="#785ea1" />
  <rect x="9223372036854775807" y="9223372036854775807" height="32422" width="64000" stroke="#000000" fill="#965fbc" />
  <rect x="9223372036854775807" y="9223372036854775807" height="32422" width="66000" stroke="#000000" fill="#94466b" />
  <rect x="9223372036854775807" y="9223372036854775807" height="32422" width="44000" stroke="#000000" fill="#c0b04e" />
  <rect x="9223372036854775807" y="9223372036854775807" height="32422" width="60000" stroke="#000000" fill="#99be65" />
  <rect x="9223372036854775807" y="9223372036854775807" height="32422" width="104000" stroke="#000000" fill="#48acb3" />
  <rect x="9223372036854775807" y="9223372036854775807" height="32422" width="74000" stroke="#000000" fill="#c399ae" />
  <rect x="9223372036854775807" y="9223372036854775807" height="32422" width="84000" stroke="#000000" fill="#463937" />
  <rect x="9223372036854775807" y="9223372036854775807" height="32422" width="54000" stroke="#000000" fill="#543e7c" />
  <rect x="9223372036854775807" y="9223372036854775807" height="32422" width="118000" stroke="#000000" fill="#aa6c6d" />
  <rect x="9223372036854775807" y="9223372036854775807" height="32422" width="78000" stroke="#000000" fill="#815066" />
  <rect x="9223372036854775807" y="9223372036854775807" height="32422" width="40000" stroke="#000000" fill="#3a97ab" />
  <rect x="9223372036854775807" y="9223372036854775807" height="32422" width="96000" stroke="#000000" fill="#3c4c84" />
</svg>
