<?xml version="1.0" encoding="UTF-8"?>
<svg xmlns="http://www.w3.org/2000/svg" xmlns:xlink="http://www.w3.org/1999/xlink">
  <rect x="750408" y="6663277" height="32421" width="90000" stroke="#000000" fill="#af543f" />
  <rect x="728142" y="6947849" height="32421" width="62000" stroke="#000000" fill="#6c734a" />
  <rect x="847259" y="6760096" height="32421" width="86000" stroke="#000000" fill="#47bd51" />
  <rect x="341648" y="6525888" height="32421" width="44000" stroke="#000000" fill="#695458" />
  <rect x="845027" y="6473276" height="32421" width="84000" stroke="#000000" fill="#c0ab92" />
  <rect x="611258" y="6663277" height="32421" width="104000" stroke="#000000" fill="#9f3e6a" />
  <rect x="797159" y="6631292" height="32421" width="106000" stroke="#000000" fill="#b4703d" />
  <rect x="787144" y="6537898" height="32421" width="54000" stroke="#000000" fill="#ba7383" />
  <rect x="685474" y="6392395" height="32421" width="84000" stroke="#000000" fill="#6b7336" />
  <rect x="568960" y="6783550" height="32421" width="76000" stroke="#000000" fill="#5c4c8c" />
  <rect x="620163" y="6522051" height="32421" width="52000" stroke="#000000" fill="#6b51b6" />
  <rect x="490260" y="6626382" height="32421" width="112000" stroke="#000000" fill="#c39f46" />
  <rect x="546101" y="6829153" height="32421" width="114000" stroke="#000000" fill="#39794f" />
  <rect x="514408" y="6834339" height="32421" width="82000" stroke="#000000" fill="#b459ba" />
  <rect x="474329" y="6779880" height="32421" width="106000" stroke="#000000" fill="#ac5869" />
  <rect x="646512" y="6358010" height="32421" width="58000" stroke="#000000" fill="#7a9537" />
  <rect x="410884" y="6592360" height="32421" width="50000" stroke="#000000" fill="#56ab93" />
  <rect x="497491" y="6751362" height="32421" width="104000" stroke="#000000" fill="#7f5d9b" />
  <rect x="677714" y="6860498" height="32421" width="70000" stroke="#000000" fill="#46795a" />
  <rect x="828333" y="6681104" height="32421" width="102000" stroke="#000000" fill="#8ab7bb" />
  <rect x="308839" y="6461600" height="32421" width="56000" stroke="#000000" fill="#5e8aba" />
  <rect x="658345" y="6763267" height="32421" width="80000" stroke="#000000" fill="#6abc8f" />
  <rect x="774897" y="6284066" height="32421" width="118000" stroke="#000000" fill="#c34c50" />
  <rect x="400863" y="6676113" height="32421" width="114000" stroke="#000000" fill="#a6419b" />
  <rect x="481165" y="6558055" height="32421" width="84000" stroke="#000000" fill="#ac91ab" />
  <rect x="541129" y="6494165" height="32421" width="68000" stroke="#000000" fill="#566190" />
  <rect x="686957" y="6261982" height="32421" width="56000" stroke="#000000" fill="#866176" />
  <rect x="753744" y="6626037" height="32421" width="108000" stroke="#000000" fill="#3cb05d" />
  <rect x="630961" y="6561173" height="32421" width="108000" stroke="#000000" fill="#783c4c" />
  <rect x="437487" y="6489911" height="32421" width="60000" stroke="#000000" fill="#934e4b" />
  <rect x="590847" y="6708523" height="32421" width="168000" stroke="#000000" fill="#5a5978" />
  <rect x="681388" y="6345728" height="32421" width="120000" stroke="#000000" fill="#81c267" />
  <rect x="731482" y="6988624" height="32421" width="102000" stroke="#000000" fill="#a4bd5d" />
  <rect x="358564" y="6626037" height="32421" width="68000" stroke="#000000" fill="#73bc44" />
  <rect x="780086" y="6666844" height="32421" width="58000" stroke="#000000" fill="#c1a87f" />
  <rect x="447614" y="6284066" height="32421" width="62000" stroke="#000000" fill="#836775" />
  <rect x="642800" y="6994185" height="32421" width="118000" stroke="#000000" fill="#6a61ba" />
  <rect x="772454" y="6575070" height="32421" width="80000" stroke="#000000" fill="#82c3b0" />
  <rect x="802354" y="7015800" height="32421" width="68000" stroke="#000000" fill="#9d9e42" />
  <rect x="494371" y="6485449" height="32421" width="90000" stroke="#000000" fill="#523aa4" />
  <rect x="704019" y="6360875" height="32421" width="140000" stroke="#000000" fill="#5d7793" />
  <rect x="609475" y="6580718" height="32421" width="74000" stroke="#000000" fill="#bb5e64" />
</svg>
