<?xml version="1.0" encoding="UTF-8"?>
<svg xmlns="http://www.w3.org/2000/svg" xmlns:xlink="http://www.w3.org/1999/xlink" viewBox="670258 5706690 495967 358518">
  <rect x="1056538" y="5885440" height="32422" width="50000" stroke="#000000" fill="#55bea5" />
  <rect x="769665" y="5909647" height="32422" width="98000" stroke="#000000" fill="#bf877c" />
  <rect x="1032413" y="5972405" height="32422" width="76000" stroke="#000000" fill="#65a690" />
  <rect x="1008300" y="5917950" height="32422" width="66000" stroke="#000000" fill="#81396f" />
  <rect x="1086224" y="5994297" height="32422" width="80000" stroke="#000000" fill="#56799a" />
  <rect x="813302" y="5706690" height="32422" width="60000" stroke="#000000" fill="#93759a" />
  <rect x="739277" y="5833738" height="32422" width="92000" stroke="#000000" fill="#58a466" />
  <rect x="961691" y="5913064" height="32422" width="80000" stroke="#000000" fill="#8463a9" />
  <rect x="830220" y="5896263" height="32422" width="48000" stroke="#000000" fill="#8db462" />
  <rect x="1012898" y="6002731" height="32422" width="104000" stroke="#000000" fill="#93bf62" />
  <rect x="893341" y="5973504" height="32422" width="60000" stroke="#000000" fill="#94af5e" />
  <rect x="960578" y="5890144" height="32422" width="74000" stroke="#000000" fill="#4b91c4" />
  <rect x="1003102" y="5780123" height="32422" width="104000" stroke="#000000" fill="#6389bb" />
  <rect x="960021" y="6025461" height="32422" width="128000" stroke="#000000" fill="#9c578d" />
  <rect x="817196" y="6032787" height="32422" width="100000" stroke="#000000" fill="#868fae" />
  <rect x="943769" y="5938985" height="32422" width="40000" stroke="#000000" fill="#4fb13a" />
  <rect x="670258" y="5947315" height="32422" width="94000" stroke="#000000" fill="#a0ac61" />
  <rect x="920725" y="5918018" height="32422" width="70000" stroke="#000000" fill="#9f853f" />
  <rect x="950566" y="5972181" height="32422" width="66000" stroke="#000000" fill="#b9367d" />
  <rect x="838015" y="5944375" height="32422" width="96000" stroke="#000000" fill="#6ab741" />
  <rect x="916607" y="5893391" height="32422" width="66000" stroke="#000000" fill="#b9b39e" />
  <rect x="997166" y="5748661" height="32422" width="72000" stroke="#000000" fill="#5e594c" />
  <rect x="932225" y="5901678" height="32422" width="54000" stroke="#000000" fill="#7b6573" />
  <rect x="1058391" y="5931596" height="32422" width="64000" stroke="#000000" fill="#7a46b1" />
  <rect x="860279" y="5988762" height="32422" width="66000" stroke="#000000" fill="#bd97a7" />
  <rect x="817643" y="5786859" height="32422" width="44000" stroke="#000000" fill="#bc77c3" />
  <rect x="1009781" y="5718304" height="32422" width="60000" stroke="#000000" fill="#92a2a8" />
  <rect x="1047262" y="5964215" height="32422" width="104000" stroke="#000000" fill="#b68168" />
  <rect x="682505" y="5782209" height="32422" width="74000" stroke="#000000" fill="#a3b0ad" />
  <rect x="794934" y="5877328" height="32422" width="84000" stroke="#000000" fill="#35b541" />
  <rect x="843917" y="6004769" height="32422" width="54000" stroke="#000000" fill="#494e5e" />
  <rect x="1041173" y="5978914" height="32422" width="118000" stroke="#000000" fill="#84bb80" />
  <rect x="679905" y="5732637" height="32422" width="78000" stroke="#000000" fill="#bab6b7" />
  <rect x="806071" y="5936959" height="32422" width="40000" stroke="#000000" fill="#869b35" />
  <rect x="816642" y="5970225" height="32422" width="96000" stroke="#000000" fill="#b93b95" />
</svg>
