<?xml version="1.0" encoding="UTF-8"?>
<svg xmlns="http://www.w3.org/2000/svg" xmlns:xlink="http://www.w3.org/1999/xlink" viewBox="936582 18990004 1718805 2318441">
  <rect x="2275679" y="20206968" height="32422" width="90000" stroke="#000000" fill="#b2687a" />
  <rect x="2208157" y="21069957" height="32422" width="62000" stroke="#000000" fill="#7136bf" />
  <rect x="2569387" y="20500581" height="32422" width="86000" stroke="#000000" fill="#86785e" />
  <rect x="1036078" y="19790323" height="32422" width="44000" stroke="#000000" fill="#82a8bb" />
  <rect x="2562618" y="19630772" height="32422" width="84000" stroke="#000000" fill="#51b8ae" />
  <rect x="1853696" y="20206968" height="32422" width="104000" stroke="#000000" fill="#a3b1bb" />
  <rect x="2417456" y="20109971" height="32422" width="106000" stroke="#000000" fill="#6d7a82" />
  <rect x="2387084" y="19826745" height="32422" width="54000" stroke="#000000" fill="#7c9e66" />
  <rect x="2078760" y="19385493" height="32422" width="84000" stroke="#000000" fill="#3bc4c4" />
  <rect x="1725421" y="20571706" height="32422" width="76000" stroke="#000000" fill="#639a79" />
  <rect x="1880701" y="19778687" height="32422" width="52000" stroke="#000000" fill="#69bc82" />
  <rect x="1486759" y="20095080" height="32422" width="112000" stroke="#000000" fill="#394676" />
  <rect x="1656100" y="20710001" height="32422" width="114000" stroke="#000000" fill="#50a541" />
  <rect x="1559988" y="20725728" height="32422" width="82000" stroke="#000000" fill="#498c9d" />
  <rect x="1438447" y="20560576" height="32422" width="106000" stroke="#000000" fill="#c18c3a" />
  <rect x="1960604" y="19281220" height="32422" width="58000" stroke="#000000" fill="#b45d3c" />
  <rect x="1246043" y="19991905" height="32422" width="50000" stroke="#000000" fill="#afb092" />
  <rect x="1508687" y="20474092" height="32422" width="104000" stroke="#000000" fill="#4871a0" />
  <rect x="2055228" y="20805058" height="32422" width="70000" stroke="#000000" fill="#439c98" />
  <rect x="2511992" y="20261029" height="32422" width="102000" stroke="#000000" fill="#7a4b78" />
  <rect x="936582" y="19595366" height="32422" width="56000" stroke="#000000" fill="#81807e" />
  <rect x="1996489" y="20510197" height="32422" width="80000" stroke="#000000" fill="#6da07e" />
  <rect x="2349943" y="19056978" height="32422" width="118000" stroke="#000000" fill="#6d7395" />
  <rect x="1215653" y="20245895" height="32422" width="114000" stroke="#000000" fill="#63b84a" />
  <rect x="1459178" y="19887874" height="32422" width="84000" stroke="#000000" fill="#385a4e" />
  <rect x="1641021" y="19694121" height="32422" width="68000" stroke="#000000" fill="#3b5f84" />
  <rect x="2083258" y="18990004" height="32422" width="56000" stroke="#000000" fill="#41593e" />
  <rect x="2285797" y="20094034" height="32422" width="108000" stroke="#000000" fill="#93748a" />
  <rect x="1913444" y="19897330" height="32422" width="108000" stroke="#000000" fill="#5d9586" />
  <rect x="1326720" y="19681221" height="32422" width="60000" stroke="#000000" fill="#6c758b" />
  <rect x="1791798" y="20344180" height="32422" width="168000" stroke="#000000" fill="#484654" />
  <rect x="2066371" y="19243972" height="32422" width="120000" stroke="#000000" fill="#657aac" />
  <rect x="2218284" y="21193610" height="32422" width="102000" stroke="#000000" fill="#c17d84" />
  <rect x="1087379" y="20094034" height="32422" width="68000" stroke="#000000" fill="#3e799c" />
  <rect x="2365679" y="20217785" height="32422" width="58000" stroke="#000000" fill="#906e68" />
  <rect x="1357431" y="19056978" height="32422" width="62000" stroke="#000000" fill="#3c759c" />
  <rect x="1949348" y="21210474" height="32422" width="118000" stroke="#000000" fill="#b33c4d" />
  <rect x="2342535" y="19939471" height="32422" width="80000" stroke="#000000" fill="#bf41b9" />
  <rect x="2433209" y="21276024" height="32422" width="68000" stroke="#000000" fill="#68c26a" />
  <rect x="1499226" y="19667689" height="32422" width="90000" stroke="#000000" fill="#9f4a69" />
  <rect x="2135001" y="19289907" height="32422" width="140000" stroke="#000000" fill="#784c40" />
  <rect x="1848288" y="19956601" height="32422" width="74000" stroke="#000000" fill="#9f3a8d" />
</svg>
