<?xml version="1.0" encoding="UTF-8"?>
<svg xmlns="http://www.w3.org/2000/svg" xmlns:xlink="http://www.w3.org/1999/xlink" viewBox="936582 18990004 1718805 2318441">
  <rect x="2275679" y="20206968" height="32422" width="90000" stroke="#000000" fill="#378d92" />
  <rect x="2208157" y="21069957" height="32422" width="62000" stroke="#000000" fill="#3a5a47" />
  <rect x="2569387" y="20500581" height="32422" width="86000" stroke="#000000" fill="#9f8e7a" />
  <rect x="1036078" y="19790323" height="32422" width="44000" stroke="#000000" fill="#395e47" />
  <rect x="2562618" y="19630772" height="32422" width="84000" stroke="#000000" fill="#a2776c" />
  <rect x="1853696" y="20206968" height="32422" width="104000" stroke="#000000" fill="#8882be" />
  <rect x="2417456" y="20109971" height="32422" width="106000" stroke="#000000" fill="#6272ab" />
  <rect x="2387084" y="19826745" height="32422" width="54000" stroke="#000000" fill="#899c86" />
  <rect x="2078760" y="19385493" height="32422" width="84000" stroke="#000000" fill="#669448" />
  <rect x="1725421" y="20571706" height="32422" width="76000" stroke="#000000" fill="#b5c48b" />
  <rect x="1880701" y="19778687" height="32422" width="52000" stroke="#000000" fill="#5aaf60" />
  <rect x="1486759" y="20095080" height="32422" width="112000" stroke="#000000" fill="#7dbc80" />
  <rect x="1656100" y="20710001" height="32422" width="114000" stroke="#000000" fill="#c14363" />
  <rect x="1559988" y="20725728" height="32422" width="82000" stroke="#000000" fill="#b44ca7" />
  <rect x="1438447" y="20560576" height="32422" width="106000" stroke="#000000" fill="#5d53a6" />
  <rect x="1960604" y="19281220" height="32422" width="58000" stroke="#000000" fill="#c2465d" />
  <rect x="1246043" y="19991905" height="32422" width="50000" stroke="#000000" fill="#96b659" />
  <rect x="1508687" y="20474092" height="32422" width="104000" stroke="#000000" fill="#426965" />
  <rect x="2055228" y="20805058" height="32422" width="70000" stroke="#000000" fill="#73bebf" />
  <rect x="2511992" y="20261029" height="32422" width="102000" stroke="#000000" fill="#7c74a0" />
  <rect x="936582" y="19595366" height="32422" width="56000" stroke="#000000" fill="#c3705f" />
  <rect x="1996489" y="20510197" height="32422" width="80000" stroke="#000000" fill="#66a9c3" />
  <rect x="2349943" y="19056978" height="32422" width="118000" stroke="#000000" fill="#51977f" />
  <rect x="1215653" y="20245895" height="32422" width="114000" stroke="#000000" fill="#536e4c" />
  <rect x="1459178" y="19887874" height="32422" width="84000" stroke="#000000" fill="#b6b097" />
  <rect x="1641021" y="19694121" height="32422" width="68000" stroke="#000000" fill="#3caa77" />
  <rect x="2083258" y="18990004" height="32422" width="56000" stroke="#000000" fill="#57523c" />
  <rect x="2285797" y="20094034" height="32422" width="108000" stroke="#000000" fill="#4f3d6d" />
  <rect x="1913444" y="19897330" height="32422" width="108000" stroke="#000000" fill="#718fc4" />
  <rect x="1326720" y="19681221" height="32422" width="60000" stroke="#000000" fill="#8473bb" />
  <rect x="1791798" y="20344180" height="32422" width="168000" stroke="#000000" fill="#6d6475" />
  <rect x="2066371" y="19243972" height="32422" width="120000" stroke="#000000" fill="#49be87" />
  <rect x="2218284" y="21193610" height="32422" width="102000" stroke="#000000" fill="#54b494" />
  <rect x="1087379" y="20094034" height="32422" width="68000" stroke="#000000" fill="#a389bc" />
  <rect x="2365679" y="20217785" height="32422" width="58000" stroke="#000000" fill="#648c3c" />
  <rect x="1357431" y="19056978" height="32422" width="62000" stroke="#000000" fill="#88b0b7" />
  <rect x="1949348" y="21210474" height="32422" width="118000" stroke="#000000" fill="#826a85" />
  <rect x="2342535" y="19939471" height="32422" width="80000" stroke="#000000" fill="#7ca6bd" />
  <rect x="2433209" y="21276024" height="32422" width="68000" stroke="#000000" fill="#60b646" />
  <rect x="1499226" y="19667689" height="32422" width="90000" stroke="#000000" fill="#8d405b" />
  <rect x="2135001" y="19289907" height="32422" width="140000" stroke="#000000" fill="#b44297" />
  <rect x="1848288" y="19956601" height="32422" width="74000" stroke="#000000" fill="#938d5b" />
</svg>
