<?xml version="1.0" encoding="UTF-8"?>
<svg xmlns="http://www.w3.org/2000/svg" xmlns:xlink="http://www.w3.org/1999/xlink" viewBox="2244016.36775734 4.549936057294609E7 3998140.9848761 5509641.133671105">
  <rect x="5452443.458330861" y="4.841516149962531E7" height="32421.875" width="90000.0" stroke="#000000" fill="#869995" />
  <rect x="5290663.319594971" y="5.0482852073970445E7" height="32421.875" width="62000.0" stroke="#000000" fill="#a07247" />
  <rect x="6156157.35263344" y="4.911864632121106E7" height="32421.875" width="86000.0" stroke="#000000" fill="#953f6a" />
  <rect x="2482405.733144938" y="4.7416895030617334E7" height="32421.875" width="44000.0" stroke="#000000" fill="#bfb336" />
  <rect x="6139939.664322659" y="4.703461587839851E7" height="32421.875" width="84000.0" stroke="#000000" fill="#4753af" />
  <rect x="4441387.662227845" y="4.841516149962531E7" height="32421.875" width="104000.0" stroke="#000000" fill="#8a67a9" />
  <rect x="5792137.139612364" y="4.818276028649927E7" height="32421.875" width="106000.0" stroke="#000000" fill="#50b66c" />
  <rect x="5719366.535428388" y="4.750416157209226E7" height="32421.875" width="54000.0" stroke="#000000" fill="#c389a1" />
  <rect x="4980632.640559935" y="4.6446937288435996E7" height="32421.875" width="84000.0" stroke="#000000" fill="#c25066" />
  <rect x="4134045.7604274075" y="4.9289059992723234E7" height="32421.875" width="76000.0" stroke="#000000" fill="#4e399f" />
  <rect x="4506091.220463379" y="4.738901490143927E7" height="32421.875" width="52000.0" stroke="#000000" fill="#a66550" />
  <rect x="3562219.509197885" y="4.8147082422293246E7" height="32421.875" width="112000.0" stroke="#000000" fill="#8c627a" />
  <rect x="3967954.2898840713" y="4.962041008677117E7" height="32421.875" width="114000.0" stroke="#000000" fill="#7368bb" />
  <rect x="3737673.7686518636" y="4.9658090771433346E7" height="32421.875" width="82000.0" stroke="#000000" fill="#873b49" />
  <rect x="3446465.958021712" y="4.926239259718368E7" height="32421.875" width="106000.0" stroke="#000000" fill="#a26b54" />
  <rect x="4697536.417714653" y="4.6197101312671445E7" height="32421.875" width="58000.0" stroke="#000000" fill="#7b514e" />
  <rect x="2985474.003697933" y="4.789987898662493E7" height="32421.875" width="50000.0" stroke="#000000" fill="#6c5177" />
  <rect x="3614759.801563633" y="4.90551796828414E7" height="32421.875" width="104000.0" stroke="#000000" fill="#80468d" />
  <rect x="4924252.158457179" y="4.984816307131566E7" height="32421.875" width="70000.0" stroke="#000000" fill="#c13d6e" />
  <rect x="6018641.39200698" y="4.854468968601313E7" height="32421.875" width="102000.0" stroke="#000000" fill="#37943e" />
  <rect x="2244016.36775734" y="4.694978515820485E7" height="32421.875" width="56000.0" stroke="#000000" fill="#786db6" />
  <rect x="4783515.783530132" y="4.914168704692614E7" height="32421.875" width="80000.0" stroke="#000000" fill="#50b1b8" />
  <rect x="5630378.243660229" y="4.56598271489335E7" height="32421.875" width="118000.0" stroke="#000000" fill="#9cb9a7" />
  <rect x="2912659.947572715" y="4.850842852443592E7" height="32421.875" width="114000.0" stroke="#000000" fill="#463e9c" />
  <rect x="3496136.6115862527" y="4.765062271157744E7" height="32421.875" width="84000.0" stroke="#000000" fill="#c45957" />
  <rect x="3931826.241565415" y="4.718639751561333E7" height="32421.875" width="68000.0" stroke="#000000" fill="#9ba64c" />
  <rect x="4991409.70652673" y="4.549936057294609E7" height="32421.875" width="56000.0" stroke="#000000" fill="#49843a" />
  <rect x="5476686.393656537" y="4.814457609205945E7" height="32421.875" width="108000.0" stroke="#000000" fill="#3dbd69" />
  <rect x="4584542.553807019" y="4.767327867522827E7" height="32421.875" width="108000.0" stroke="#000000" fill="#666c78" />
  <rect x="3178772.824926859" y="4.715548920712085E7" height="32421.875" width="60000.0" stroke="#000000" fill="#a0565e" />
  <rect x="4293082.151248543" y="4.874391617540702E7" height="32421.875" width="168000.0" stroke="#000000" fill="#79633d" />
  <rect x="4950949.083616872" y="4.610785719997883E7" height="32421.875" width="120000.0" stroke="#000000" fill="#3eae75" />
  <rect x="5314927.497704403" y="5.0779118550997145E7" height="32421.875" width="102000.0" stroke="#000000" fill="#9eb187" />
  <rect x="2605319.699506572" y="4.814457609205945E7" height="32421.875" width="68000.0" stroke="#000000" fill="#8343b4" />
  <rect x="5668080.187817893" y="4.844107776120114E7" height="32421.875" width="58000.0" stroke="#000000" fill="#82c26a" />
  <rect x="3252355.2825885126" y="4.56598271489335E7" height="32421.875" width="62000.0" stroke="#000000" fill="#95757a" />
  <rect x="4670566.996960761" y="5.081952520157084E7" height="32421.875" width="118000.0" stroke="#000000" fill="#804a6b" />
  <rect x="5612628.458443989" y="4.7774248403472684E7" height="32421.875" width="80000.0" stroke="#000000" fill="#7e3591" />
  <rect x="5829880.881976976" y="5.097657983161719E7" height="32421.875" width="68000.0" stroke="#000000" fill="#95475f" />
  <rect x="3592090.7620769637" y="4.712306733212085E7" height="32421.875" width="90000.0" stroke="#000000" fill="#a5a2bd" />
  <rect x="5115385.232251918" y="4.6217916951972276E7" height="32421.875" width="140000.0" stroke="#000000" fill="#ab5aa9" />
  <rect x="4428431.715589882" y="4.7815289925257705E7" height="32421.875" width="74000.0" stroke="#000000" fill="#815eb6" />
</svg>
