<?xml version="1.0" encoding="UTF-8"?>
<svg xmlns="http://www.w3.org/2000/svg" xmlns:xlink="http://www.w3.org/1999/xlink" viewBox="2244016 45499361 3998141 5509641">
  <rect x="5452443" y="48415161" height="32422" width="90000" stroke="#000000" fill="#829a3b" />
  <rect x="5290663" y="50482852" height="32422" width="62000" stroke="#000000" fill="#71c39a" />
  <rect x="6156157" y="49118646" height="32422" width="86000" stroke="#000000" fill="#76a05e" />
  <rect x="2482406" y="47416895" height="32422" width="44000" stroke="#000000" fill="#3bb7ad" />
  <rect x="6139940" y="47034616" height="32422" width="84000" stroke="#000000" fill="#529969" />
  <rect x="4441388" y="48415161" height="32422" width="104000" stroke="#000000" fill="#697c5c" />
  <rect x="5792137" y="48182760" height="32422" width="106000" stroke="#000000" fill="#a6aac2" />
  <rect x="5719367" y="47504162" height="32422" width="54000" stroke="#000000" fill="#466270" />
  <rect x="4980633" y="46446937" height="32422" width="84000" stroke="#000000" fill="#aca9b4" />
  <rect x="4134046" y="49289060" height="32422" width="76000" stroke="#000000" fill="#965f97" />
  <rect x="4506091" y="47389015" height="32422" width="52000" stroke="#000000" fill="#a1b4a7" />
  <rect x="3562220" y="48147082" height="32422" width="112000" stroke="#000000" fill="#6137b2" />
  <rect x="3967954" y="49620410" height="32422" width="114000" stroke="#000000" fill="#4190b3" />
  <rect x="3737674" y="49658091" height="32422" width="82000" stroke="#000000" fill="#a652c2" />
  <rect x="3446466" y="49262393" height="32422" width="106000" stroke="#000000" fill="#8f5e57" />
  <rect x="4697536" y="46197101" height="32422" width="58000" stroke="#000000" fill="#5c3b6a" />
  <rect x="2985474" y="47899879" height="32422" width="50000" stroke="#000000" fill="#3bbf77" />
  <rect x="3614760" y="49055180" height="32422" width="104000" stroke="#000000" fill="#605e75" />
  <rect x="4924252" y="49848163" height="32422" width="70000" stroke="#000000" fill="#8ba388" />
  <rect x="6018641" y="48544690" height="32422" width="102000" stroke="#000000" fill="#7aa44e" />
  <rect x="2244016" y="46949785" height="32422" width="56000" stroke="#000000" fill="#6a477b" />
  <rect x="4783516" y="49141687" height="32422" width="80000" stroke="#000000" fill="#595c69" />
  <rect x="5630378" y="45659827" height="32422" width="118000" stroke="#000000" fill="#72ae79" />
  <rect x="2912660" y="48508429" height="32422" width="114000" stroke="#000000" fill="#c03e36" />
  <rect x="3496137" y="47650623" height="32422" width="84000" stroke="#000000" fill="#b4a44c" />
  <rect x="3931826" y="47186398" height="32422" width="68000" stroke="#000000" fill="#7d4572" />
  <rect x="4991410" y="45499361" height="32422" width="56000" stroke="#000000" fill="#b24453" />
  <rect x="5476686" y="48144576" height="32422" width="108000" stroke="#000000" fill="#847355" />
  <rect x="4584543" y="47673279" height="32422" width="108000" stroke="#000000" fill="#b09fbd" />
  <rect x="3178773" y="47155489" height="32422" width="60000" stroke="#000000" fill="#70acb6" />
  <rect x="4293082" y="48743916" height="32422" width="168000" stroke="#000000" fill="#a39467" />
  <rect x="4950949" y="46107857" height="32422" width="120000" stroke="#000000" fill="#9c728a" />
  <rect x="5314927" y="50779119" height="32422" width="102000" stroke="#000000" fill="#b63683" />
  <rect x="2605320" y="48144576" height="32422" width="68000" stroke="#000000" fill="#4ba05e" />
  <rect x="5668080" y="48441078" height="32422" width="58000" stroke="#000000" fill="#4c62a6" />
  <rect x="3252355" y="45659827" height="32422" width="62000" stroke="#000000" fill="#c4b3bc" />
  <rect x="4670567" y="50819525" height="32422" width="118000" stroke="#000000" fill="#9e3f90" />
  <rect x="5612628" y="47774248" height="32422" width="80000" stroke="#000000" fill="#7cab41" />
  <rect x="5829881" y="50976580" height="32422" width="68000" stroke="#000000" fill="#9dabaa" />
  <rect x="3592091" y="47123067" height="32422" width="90000" stroke="#000000" fill="#897c4c" />
  <rect x="5115385" y="46217917" height="32422" width="140000" stroke="#000000" fill="#7aa256" />
  <rect x="4428432" y="47815290" height="32422" width="74000" stroke="#000000" fill="#ae5999" />
</svg>
