<?xml version="1.0" encoding="UTF-8"?>
<svg xmlns="http://www.w3.org/2000/svg" xmlns:xlink="http://www.w3.org/1999/xlink" viewBox="936582 18990004 1718805 2318441">
  <rect x="2275679" y="20206968" height="32422" width="90000" stroke="#000000" fill="#657bb8" />
  <rect x="2208157" y="21069957" height="32422" width="62000" stroke="#000000" fill="#75b647" />
  <rect x="2569387" y="20500581" height="32422" width="86000" stroke="#000000" fill="#435239" />
  <rect x="1036078" y="19790323" height="32422" width="44000" stroke="#000000" fill="#895964" />
  <rect x="2562618" y="19630772" height="32422" width="84000" stroke="#000000" fill="#646c77" />
  <rect x="1853696" y="20206968" height="32422" width="104000" stroke="#000000" fill="#386d5e" />
  <rect x="2417456" y="20109971" height="32422" width="106000" stroke="#000000" fill="#5741a0" />
  <rect x="2387084" y="19826745" height="32422" width="54000" stroke="#000000" fill="#b386b7" />
  <rect x="2078760" y="19385493" height="32422" width="84000" stroke="#000000" fill="#6f49b3" />
  <rect x="1725421" y="20571706" height="32422" width="76000" stroke="#000000" fill="#4b5374" />
  <rect x="1880701" y="19778687" height="32422" width="52000" stroke="#000000" fill="#a33cc1" />
  <rect x="1486759" y="20095080" height="32422" width="112000" stroke="#000000" fill="#85c14f" />
  <rect x="1656100" y="20710001" height="32422" width="114000" stroke="#000000" fill="#486ba2" />
  <rect x="1559988" y="20725728" height="32422" width="82000" stroke="#000000" fill="#9fa796" />
  <rect x="1438447" y="20560576" height="32422" width="106000" stroke="#000000" fill="#47a15c" />
  <rect x="1960604" y="19281220" height="32422" width="58000" stroke="#000000" fill="#648d42" />
  <rect x="1246043" y="19991905" height="32422" width="50000" stroke="#000000" fill="#563b8e" />
  <rect x="1508687" y="20474092" height="32422" width="104000" stroke="#000000" fill="#af4c72" />
  <rect x="2055228" y="20805058" height="32422" width="70000" stroke="#000000" fill="#8a6196" />
  <rect x="2511992" y="20261029" height="32422" width="102000" stroke="#000000" fill="#5c8073" />
  <rect x="936582" y="19595366" height="32422" width="56000" stroke="#000000" fill="#59c1b5" />
  <rect x="1996489" y="20510197" height="32422" width="80000" stroke="#000000" fill="#c1719a" />
  <rect x="2349943" y="19056978" height="32422" width="118000" stroke="#000000" fill="#789f76" />
  <rect x="1215653" y="20245895" height="32422" width="114000" stroke="#000000" fill="#699cb3" />
  <rect x="1459178" y="19887874" height="32422" width="84000" stroke="#000000" fill="#5193b4" />
  <rect x="1641021" y="19694121" height="32422" width="68000" stroke="#000000" fill="#80384b" />
  <rect x="2083258" y="18990004" height="32422" width="56000" stroke="#000000" fill="#7ea035" />
  <rect x="2285797" y="20094034" height="32422" width="108000" stroke="#000000" fill="#5d563c" />
  <rect x="1913444" y="19897330" height="32422" width="108000" stroke="#000000" fill="#a5b34b" />
  <rect x="1326720" y="19681221" height="32422" width="60000" stroke="#000000" fill="#ab9c87" />
  <rect x="1791798" y="20344180" height="32422" width="168000" stroke="#000000" fill="#aeb645" />
  <rect x="2066371" y="19243972" height="32422" width="120000" stroke="#000000" fill="#b6b654" />
  <rect x="2218284" y="21193610" height="32422" width="102000" stroke="#000000" fill="#779d91" />
  <rect x="1087379" y="20094034" height="32422" width="68000" stroke="#000000" fill="#b74473" />
  <rect x="2365679" y="20217785" height="32422" width="58000" stroke="#000000" fill="#75415b" />
  <rect x="1357431" y="19056978" height="32422" width="62000" stroke="#000000" fill="#a34574" />
  <rect x="1949348" y="21210474" height="32422" width="118000" stroke="#000000" fill="#3d646f" />
  <rect x="2342535" y="19939471" height="32422" width="80000" stroke="#000000" fill="#455c96" />
  <rect x="2433209" y="21276024" height="32422" width="68000" stroke="#000000" fill="#729cb0" />
  <rect x="1499226" y="19667689" height="32422" width="90000" stroke="#000000" fill="#9b4c9b" />
  <rect x="2135001" y="19289907" height="32422" width="140000" stroke="#000000" fill="#a390c2" />
  <rect x="1848288" y="19956601" height="32422" width="74000" stroke="#000000" fill="#994c77" />
</svg>
