<?xml version="1.0" encoding="UTF-8"?>
<svg xmlns="http://www.w3.org/2000/svg" xmlns:xlink="http://www.w3.org/1999/xlink" viewBox="3338494 28424526 2151894 1656678">
  <rect x="5262526" y="29314861" height="32422" width="50000" stroke="#000000" fill="#6f9987" />
  <rect x="3833632" y="29435433" height="32422" width="98000" stroke="#000000" fill="#598340" />
  <rect x="5142356" y="29748026" height="32422" width="76000" stroke="#000000" fill="#a374aa" />
  <rect x="5022256" y="29476789" height="32422" width="66000" stroke="#000000" fill="#3ebe84" />
  <rect x="5410388" y="29857069" height="32422" width="80000" stroke="#000000" fill="#623f79" />
  <rect x="4050988" y="28424526" height="32422" width="60000" stroke="#000000" fill="#938c78" />
  <rect x="3682275" y="29057338" height="32422" width="92000" stroke="#000000" fill="#7ab068" />
  <rect x="4790099" y="29452454" height="32422" width="80000" stroke="#000000" fill="#56b5b0" />
  <rect x="4135253" y="29368771" height="32422" width="48000" stroke="#000000" fill="#9f537a" />
  <rect x="5045156" y="29899077" height="32422" width="104000" stroke="#000000" fill="#c29d97" />
  <rect x="4449654" y="29753500" height="32422" width="60000" stroke="#000000" fill="#6b3f39" />
  <rect x="4784555" y="29338291" height="32422" width="74000" stroke="#000000" fill="#6a3790" />
  <rect x="4996362" y="28790288" height="32422" width="104000" stroke="#000000" fill="#42a7b8" />
  <rect x="4781781" y="30012292" height="32422" width="128000" stroke="#000000" fill="#4a385d" />
  <rect x="4070382" y="30048782" height="32422" width="100000" stroke="#000000" fill="#36c483" />
  <rect x="4700829" y="29581563" height="32422" width="40000" stroke="#000000" fill="#4f66b9" />
  <rect x="3338494" y="29623056" height="32422" width="94000" stroke="#000000" fill="#745ba2" />
  <rect x="4586053" y="29477129" height="32422" width="70000" stroke="#000000" fill="#594798" />
  <rect x="4734687" y="29746912" height="32422" width="66000" stroke="#000000" fill="#467a91" />
  <rect x="4174077" y="29608410" height="32422" width="96000" stroke="#000000" fill="#58943c" />
  <rect x="4565538" y="29354465" height="32422" width="66000" stroke="#000000" fill="#6c3d65" />
  <rect x="4966796" y="28633575" height="32422" width="72000" stroke="#000000" fill="#99ac48" />
  <rect x="4643331" y="29395742" height="32422" width="54000" stroke="#000000" fill="#8dbb5d" />
  <rect x="5271752" y="29544760" height="32422" width="64000" stroke="#000000" fill="#ac4948" />
  <rect x="4284976" y="29829499" height="32422" width="66000" stroke="#000000" fill="#5b4178" />
  <rect x="4072611" y="28823839" height="32422" width="44000" stroke="#000000" fill="#997e95" />
  <rect x="5029633" y="28482371" height="32422" width="60000" stroke="#000000" fill="#b38880" />
  <rect x="5216322" y="29707231" height="32422" width="104000" stroke="#000000" fill="#6d7b37" />
  <rect x="3399497" y="28800675" height="32422" width="74000" stroke="#000000" fill="#7c396d" />
  <rect x="3959497" y="29274454" height="32422" width="84000" stroke="#000000" fill="#6e6495" />
  <rect x="4203476" y="29909231" height="32422" width="54000" stroke="#000000" fill="#446c4f" />
  <rect x="5185991" y="29780448" height="32422" width="118000" stroke="#000000" fill="#4b3baf" />
  <rect x="3386545" y="28553763" height="32422" width="78000" stroke="#000000" fill="#5d765d" />
  <rect x="4014967" y="29571473" height="32422" width="40000" stroke="#000000" fill="#3e8962" />
  <rect x="4067620" y="29737168" height="32422" width="96000" stroke="#000000" fill="#bb53aa" />
</svg>
